<svg width="30" height="30" viewBox="0 0 30 30" fill="none" xmlns="http://www.w3.org/2000/svg">
<g clip-path="url(#clip0_819_333)">
<path d="M14.5667 19.6351C17.0807 19.6351 19.1187 17.5812 19.1187 15.0475C19.1187 12.5139 17.0807 10.46 14.5667 10.46C12.0527 10.46 10.0146 12.5139 10.0146 15.0475C10.0146 17.5812 12.0527 19.6351 14.5667 19.6351Z" stroke="#ABABAB" stroke-width="1.5" stroke-miterlimit="10"/>
<path d="M19.5736 4.49634H9.55913C6.5423 4.49634 4.09668 6.96105 4.09668 10.0014V20.0941C4.09668 23.1344 6.5423 25.5991 9.55913 25.5991H19.5736C22.5904 25.5991 25.0361 23.1344 25.0361 20.0941V10.0014C25.0361 6.96105 22.5904 4.49634 19.5736 4.49634Z" stroke="#ABABAB" stroke-width="1.5" stroke-linecap="round" stroke-linejoin="round"/>
<path d="M20.4843 10.4601C21.2385 10.4601 21.8499 9.84388 21.8499 9.08379C21.8499 8.3237 21.2385 7.70752 20.4843 7.70752C19.7301 7.70752 19.1187 8.3237 19.1187 9.08379C19.1187 9.84388 19.7301 10.4601 20.4843 10.4601Z" fill="#ABABAB"/>
</g>
<defs>
<clipPath id="clip0_819_333">
<rect width="29.133" height="29.3604" fill="white" transform="translate(0 0.367432)"/>
</clipPath>
</defs>
</svg>
