<svg width="46" height="50" viewBox="0 0 46 50" fill="none" xmlns="http://www.w3.org/2000/svg">
<path d="M44.8211 37.6476C43.942 36.3557 42.4532 36.0389 40.8367 36.7991L29.5673 41.7612L29.5677 41.7268C29.568 41.6995 29.5668 41.6722 29.5642 41.6451C29.367 39.6627 27.8517 38.0832 25.8791 37.8042C25.8729 37.8032 25.8666 37.8024 25.8603 37.8018L18.3675 36.9391C16.7849 36.7135 16.0059 36.1842 14.5397 35.326C12.3698 34.0566 9.89417 33.3857 7.3803 33.3857H6.91311V32.6275C6.91311 31.5115 6.0052 30.6035 4.88909 30.6035H2.69543C1.57942 30.6035 0.671509 31.5115 0.671509 32.6275V46.6374C0.671509 47.7534 1.57942 48.6614 2.69543 48.6614H4.88918C5.96536 48.6614 6.84553 47.8165 6.90715 46.7556L14.2414 49.4855C15.1592 49.8271 16.121 50.0002 17.0999 50.0002H27.2061C28.7553 50.0002 30.2659 49.5637 31.5761 48.7377L44.214 41.6077C45.0989 41.108 45.8738 39.1946 44.8211 37.6476ZM43.4193 40.3742L30.8403 47.471C30.8293 47.4771 30.8187 47.4836 30.808 47.4902C29.7292 48.1739 28.4836 48.5354 27.2061 48.5354H17.0999C16.296 48.5354 15.5061 48.3932 14.7524 48.1126L6.91311 45.1947V39.8809C6.91311 39.4763 6.58518 39.1484 6.18069 39.1484C5.7762 39.1484 5.44827 39.4763 5.44827 39.8809V46.6375C5.44827 46.9458 5.19748 47.1967 4.88909 47.1967H2.69543C2.38713 47.1967 2.13635 46.9459 2.13635 46.6375V32.6276C2.13635 32.3193 2.38713 32.0685 2.69543 32.0685H4.88918C5.19748 32.0685 5.44836 32.3192 5.44836 32.6276V36.4558C5.44836 36.8604 5.77629 37.1882 6.18079 37.1882C6.58528 37.1882 6.91321 36.8604 6.91321 36.4558V34.8506H7.38049C9.63469 34.8506 11.8545 35.4522 13.8002 36.5903C15.3547 37.4989 16.299 38.1257 18.1716 38.3907C18.1779 38.3917 18.1841 38.3925 18.1905 38.3932L25.6829 39.2559C26.968 39.4416 27.9572 40.4641 28.1026 41.7517L28.0975 42.1577C23.7445 42.1073 22.0885 42.3028 19.3031 41.8962L18.0061 41.7068C17.6061 41.6487 17.2339 41.9254 17.1755 42.3257C17.1171 42.726 17.3942 43.0979 17.7945 43.1562L19.0914 43.3456C22.0506 43.7778 23.7573 43.5669 28.8209 43.6226C28.9223 43.6226 29.029 43.5989 29.116 43.5604L41.4359 38.1359C41.4419 38.1333 41.4479 38.1305 41.4538 38.1277C42.1173 37.8141 43.03 37.619 43.6102 38.4716C44.0164 39.0689 43.9316 39.8742 43.4193 40.3742Z" fill="#876953"/>
<path d="M9.74236 16.9465C10.3334 17.4222 10.5464 18.2173 10.2724 18.9249C9.53386 20.8318 10.7487 22.9292 12.7652 23.2426C13.2588 23.3192 13.6785 23.5984 13.9418 23.9936L10.5121 30.6439C10.3062 31.0433 10.3501 31.5112 10.6265 31.8653C10.903 32.2192 11.3463 32.375 11.7837 32.2723L15.5246 31.3912L16.9757 34.9499C17.1453 35.3659 17.5295 35.6367 17.9783 35.6566C17.996 35.6574 18.0136 35.6578 18.031 35.6578C18.4588 35.6578 18.8419 35.4253 19.0397 35.0417L22.2497 28.8175C22.7469 28.937 23.2576 28.9372 23.7555 28.8175L26.9655 35.0417C27.1633 35.4253 27.5465 35.6578 27.9742 35.6578C27.9917 35.6578 28.0093 35.6574 28.0269 35.6566C28.4757 35.6367 28.8598 35.3658 29.0296 34.9499L30.4806 31.3912L34.2216 32.2723C34.659 32.3753 35.1022 32.2194 35.3787 31.8653C35.6551 31.5112 35.699 31.0433 35.4931 30.6439L32.0635 23.9936C32.3267 23.5984 32.7465 23.3192 33.2399 23.2426C35.2606 22.9285 36.4697 20.8279 35.7328 18.9249C35.4588 18.2173 35.6717 17.4222 36.2629 16.9465C37.8547 15.6651 37.854 13.2416 36.2629 11.9607C35.6718 11.4851 35.4589 10.6899 35.7328 9.98242C36.4712 8.07539 35.2564 5.97813 33.24 5.66475C32.4902 5.54824 31.9082 4.96621 31.7917 4.2165C31.4777 2.1958 29.377 0.986621 27.474 1.72363C26.7662 1.99766 25.9714 1.78457 25.4956 1.19355C24.2132 -0.399609 21.7895 -0.396093 20.5099 1.19355C20.0342 1.78457 19.2392 1.99746 18.5316 1.72363C16.6247 0.985157 14.5272 2.2 14.2139 4.2165C14.0974 4.96621 13.5154 5.54824 12.7657 5.66475C10.745 5.97881 9.53601 8.0793 10.2728 9.98242C10.5469 10.6899 10.3339 11.4851 9.74275 11.9607C8.14949 13.2432 8.15251 15.6668 9.74236 16.9465ZM18.0635 33.7384L16.7752 30.5785C16.5624 30.0568 16.01 29.7718 15.4613 29.9011L12.1399 30.6834L14.6326 25.8499C15.4183 27.1574 17.0537 27.756 18.5312 27.1836C19.2386 26.9093 20.0338 27.1226 20.5096 27.7138C20.6408 27.8767 20.7864 28.0236 20.9427 28.1557L18.0635 33.7384ZM30.5434 29.9011C29.9951 29.7725 29.4426 30.0569 29.2297 30.5786L27.9413 33.7384L25.0621 28.1557C25.2184 28.0237 25.364 27.8768 25.4952 27.7138C25.9711 27.1228 26.7662 26.91 27.4735 27.1836C28.9513 27.7559 30.5866 27.1572 31.3721 25.8499L33.8648 30.6834L30.5434 29.9011ZM10.6608 13.102C11.7509 12.2246 12.1437 10.7584 11.6385 9.45361C11.238 8.41953 11.8967 7.28223 12.9902 7.11231C14.3728 6.89746 15.4462 5.82412 15.661 4.44141C15.8312 3.34609 16.9702 2.68975 18.0023 3.08965C19.3073 3.59492 20.7733 3.20215 21.6507 2.11211C22.3461 1.24814 23.6602 1.25 24.3542 2.11211C25.2314 3.20195 26.6976 3.59482 28.0026 3.08965C29.0363 2.68916 30.1739 3.34785 30.3438 4.44141C30.5587 5.82402 31.632 6.89736 33.0147 7.11231C34.1104 7.28252 34.7661 8.42158 34.3664 9.45361C33.8611 10.7584 34.254 12.2246 35.3439 13.102C36.2077 13.7972 36.206 15.1115 35.3439 15.8054C34.2539 16.6827 33.861 18.1489 34.3664 19.4538C34.7668 20.4879 34.1081 21.6252 33.0146 21.7951C31.632 22.01 30.5587 23.0833 30.3438 24.466C30.1738 25.5599 29.0366 26.2179 28.0025 25.8177C26.6978 25.3128 25.2315 25.7054 24.3542 26.7953C23.659 27.6591 22.3446 27.6574 21.6507 26.7953C20.7748 25.7071 19.3092 25.3117 18.0022 25.8177C16.9686 26.2183 15.8309 25.5597 15.661 24.466C15.4462 23.0834 14.3728 22.0101 12.9901 21.7951C11.8944 21.6249 11.2387 20.4858 11.6385 19.4538C12.1437 18.1489 11.7509 16.6827 10.6608 15.8054C9.79705 15.1101 9.7989 13.7957 10.6608 13.102Z" fill="#876953"/>
<path d="M13.7716 15.4454C13.374 15.5198 13.1119 15.9024 13.1863 16.3C14.0686 21.0166 18.1968 24.44 23.0023 24.44C28.509 24.44 32.989 19.9601 32.989 14.4534C32.989 8.94678 28.509 4.4668 23.0023 4.4668C18.1975 4.4668 14.0693 7.88955 13.1865 12.6053C13.1121 13.0028 13.374 13.3854 13.7717 13.46C14.1696 13.5342 14.552 13.2724 14.6264 12.8748C15.3795 8.85176 18.9021 5.93164 23.0023 5.93164C27.7013 5.93164 31.5241 9.75449 31.5241 14.4534C31.5241 19.1523 27.7013 22.9752 23.0023 22.9752C18.9015 22.9752 15.3788 20.0547 14.6262 16.0308C14.5519 15.6331 14.1693 15.3719 13.7716 15.4454Z" fill="#876953"/>
<path d="M28.3952 11.7315L25.1375 11.5872L23.9936 8.53339C23.6504 7.61766 22.3535 7.61786 22.0105 8.53348L20.8666 11.5873L17.6088 11.7316C16.633 11.7747 16.23 13.0075 16.996 13.6177L19.5468 15.6493L18.6773 18.7923C18.4166 19.735 19.4658 20.497 20.2817 19.958L23.0021 18.1599L25.7226 19.9581C26.5355 20.4951 27.5885 19.7381 27.3269 18.7923L26.4574 15.6493L29.0082 13.6177C29.7734 13.008 29.3719 11.7746 28.3952 11.7315ZM25.3349 14.6706C25.0023 14.9355 24.8607 15.3715 24.974 15.7811L25.6261 18.1381L23.5859 16.7895C23.5859 16.7895 23.5858 16.7894 23.5857 16.7894C23.4085 16.6724 23.2053 16.6138 23.0021 16.6138C22.7988 16.6138 22.5955 16.6724 22.4181 16.7895L20.3779 18.1381L21.03 15.7812C21.1435 15.3715 21.0018 14.9355 20.6691 14.6706L18.7562 13.147L21.1996 13.0388C21.6242 13.0199 21.995 12.7505 22.1441 12.3524L23.002 10.0624L23.8599 12.3525C24.009 12.7505 24.3798 13.0199 24.8046 13.0388L27.2477 13.147L25.3349 14.6706Z" fill="#876953"/>
</svg>
