<svg width="46" height="50" viewBox="0 0 46 50" fill="none" xmlns="http://www.w3.org/2000/svg">
<path d="M30.7104 13.4575H6.76619C6.35994 13.4575 6.03064 13.7868 6.03064 14.1931C6.03064 14.5993 6.35994 14.9286 6.76619 14.9286H30.7105C31.1168 14.9286 31.4461 14.5993 31.4461 14.1931C31.4461 13.7868 31.1167 13.4575 30.7104 13.4575Z" fill="#876953"/>
<path d="M6.76619 9.82656H18.7383C19.1445 9.82656 19.4738 9.49727 19.4738 9.09102C19.4738 8.68477 19.1445 8.35547 18.7383 8.35547H6.76619C6.35994 8.35547 6.03064 8.68477 6.03064 9.09102C6.03064 9.49736 6.35994 9.82656 6.76619 9.82656Z" fill="#876953"/>
<path d="M30.7104 17.978H6.76619C6.35994 17.978 6.03064 18.3073 6.03064 18.7136C6.03064 19.1198 6.35994 19.4491 6.76619 19.4491H30.7105C31.1168 19.4491 31.4461 19.1198 31.4461 18.7136C31.446 18.3073 31.1167 17.978 30.7104 17.978Z" fill="#876953"/>
<path d="M12.2205 44.8895H4.55771C3.3 44.8895 2.27666 43.8662 2.27666 42.6085V3.75205C2.27666 2.49434 3.3 1.471 4.55771 1.471H26.6335C26.7048 1.471 26.775 1.47754 26.8444 1.48691V6.07422C26.8444 8.14316 28.5276 9.82627 30.5965 9.82627H35.1837C35.1932 9.8958 35.1996 9.96602 35.1996 10.0373V22.5628C35.1996 22.969 35.5289 23.2983 35.9352 23.2983C36.3414 23.2983 36.6707 22.969 36.6707 22.5628V10.0374C36.6707 9.23057 36.3564 8.47197 35.7859 7.90137L28.7693 0.884766C28.1988 0.314258 27.4403 0 26.6335 0H4.55771C2.48877 0 0.805664 1.6832 0.805664 3.75205V42.6085C0.805664 44.6773 2.48887 46.3604 4.55771 46.3604H12.2205C12.6268 46.3604 12.9561 46.0312 12.9561 45.6249C12.9561 45.2187 12.6268 44.8895 12.2205 44.8895ZM34.1595 8.35527H30.5966C29.3389 8.35527 28.3155 7.33193 28.3155 6.07422V2.51133L34.1595 8.35527Z" fill="#876953"/>
<path d="M44.9684 36.009L38.7362 25.4895C38.282 24.7225 37.2935 24.4689 36.5261 24.9235L35.0102 25.8217C33.8336 26.5188 33.3362 27.9294 33.7402 29.1795C33.2295 29.3646 32.6695 29.3616 32.1539 29.1623C30.957 28.7857 30.047 28.0282 28.5442 28.4083C25.9924 29.058 26.07 29.0255 25.8391 29.1046C24.345 28.2539 23.4468 28.0008 21.8607 28.6144L20.4468 29.1609C19.7922 29.4139 19.071 29.3539 18.4661 28.9955L18.0802 28.7681C18.2685 27.6399 17.7682 26.4494 16.7088 25.8219C16.7088 25.8219 16.7088 25.8219 16.7087 25.8218L15.1929 24.9237C14.4277 24.4705 13.4363 24.7242 12.983 25.4895L6.75055 36.0091C6.29635 36.7759 6.54908 37.7646 7.31627 38.219L8.83209 39.1171C9.29078 39.3889 9.79488 39.5181 10.2929 39.5181C10.8483 39.5181 11.3959 39.3571 11.864 39.054L12.1799 39.2404L11.5129 40.1694C10.7181 41.2767 10.9707 42.8163 12.0781 43.6112C12.5902 43.9788 13.2336 44.1467 13.8989 44.0422C14.0045 44.6593 14.3425 45.2368 14.89 45.63C15.4042 45.9991 16.0446 46.1672 16.7111 46.0622C16.817 46.6788 17.1548 47.2559 17.702 47.6487C18.4374 48.1766 19.3516 48.2376 20.1134 47.9122C20.2801 48.3452 20.5699 48.7362 20.9741 49.0265C22.0296 49.784 23.4835 49.5864 24.3036 48.605L26.076 49.655C27.2482 50.3496 28.7606 49.9636 29.4556 48.79C29.6334 48.49 29.7436 48.1631 29.7839 47.8271L29.788 47.8295C30.9584 48.5227 32.4742 48.1346 33.1675 46.9645C33.3683 46.6255 33.4784 46.2578 33.5051 45.8894C34.5368 46.1487 35.6611 45.7154 36.2304 44.7545C36.4172 44.4393 36.5255 44.0987 36.5612 43.7561C37.6669 44.1899 38.9591 43.7706 39.5836 42.7167C39.9194 42.1498 40.0144 41.4861 39.851 40.8478C39.7576 40.4825 39.5857 40.151 39.3498 39.871L40.3267 39.3002C41.1532 39.6395 42.0963 39.5852 42.8868 39.117L44.4024 38.2189C45.1696 37.7648 45.423 36.7763 44.9684 36.009ZM9.58189 37.8516L8.06607 36.9534C7.99869 36.9135 7.97633 36.8262 8.01617 36.7588L14.2486 26.239C14.2887 26.1713 14.3763 26.1493 14.4433 26.1892L15.959 27.0871C16.6326 27.4862 16.8433 28.3501 16.4515 29.0113L11.5061 37.359C11.1114 38.0254 10.2483 38.2462 9.58189 37.8516ZM12.9359 42.4162C12.4892 42.0955 12.3871 41.4742 12.708 41.0273L13.6883 39.6617C14.0006 39.2267 14.623 39.1076 15.0772 39.4337C15.523 39.7537 15.6253 40.3767 15.3053 40.8225L14.3249 42.1881C14.0048 42.6341 13.3815 42.736 12.9359 42.4162ZM15.7479 44.4351C15.3021 44.1149 15.1999 43.4918 15.5199 43.0461L16.5003 41.6806C16.5003 41.6806 16.5003 41.6806 16.5003 41.6805C16.5003 41.6805 16.5003 41.6804 16.5004 41.6804L17.5823 40.1733C17.7374 39.9574 17.9671 39.8147 18.2295 39.7717C18.2839 39.7627 18.3385 39.7583 18.3927 39.7583C18.5992 39.7583 18.8001 39.8226 18.9712 39.9453C19.187 40.1004 19.3297 40.3301 19.3727 40.5924C19.4158 40.8548 19.3542 41.1182 19.1991 41.3341L17.1367 44.2069C16.8162 44.6537 16.1948 44.756 15.7479 44.4351ZM18.5599 46.4537C18.1143 46.1338 18.012 45.5111 18.3314 45.0654C18.3315 45.0652 18.3317 45.065 18.3318 45.0648L20.3942 42.1921C20.714 41.7464 21.3375 41.644 21.7831 41.964C22.2289 42.284 22.3311 42.907 22.0111 43.3528L21.0948 44.6293C21.0948 44.6293 21.0948 44.6293 21.0947 44.6294L19.9487 46.2257C19.6287 46.6715 19.0058 46.7739 18.5599 46.4537ZM21.832 47.8314C21.3865 47.5115 21.284 46.8892 21.6033 46.4434L22.2897 45.4873C22.6096 45.0414 23.233 44.9395 23.6786 45.2593C24.1243 45.5792 24.2266 46.2023 23.9066 46.6481L23.2208 47.6033C22.9008 48.0492 22.2776 48.1516 21.832 47.8314ZM38.3182 41.967C38.0383 42.4394 37.4266 42.596 36.9542 42.3162C36.1542 41.8423 30.9936 38.785 30.4434 38.459C30.0938 38.252 29.6427 38.3673 29.4357 38.7168C29.2287 39.0663 29.344 39.5175 29.6935 39.7245L34.6157 42.6406L34.6158 42.6407C35.0883 42.9206 35.246 43.5305 34.965 44.0049C34.685 44.4774 34.073 44.6338 33.6007 44.3542C31.7802 43.2757 30.302 42.3999 28.6759 41.4365C28.3262 41.2295 27.8753 41.3448 27.6682 41.6943C27.4612 42.0438 27.5765 42.495 27.926 42.7021L31.5528 44.8507L31.5536 44.8512C32.0264 45.1319 32.1825 45.7415 31.9021 46.2149C31.6221 46.6875 31.0103 46.844 30.5378 46.5642L28.5914 45.4111C28.5912 45.411 28.5909 45.4109 28.5907 45.4107C28.5905 45.4106 28.5903 45.4105 28.5901 45.4105L27.1697 44.5688C26.8201 44.3617 26.369 44.4771 26.162 44.8267C25.9549 45.1762 26.0703 45.6273 26.4198 45.8344L27.8405 46.6761C27.8407 46.6762 27.8409 46.6764 27.8411 46.6765C28.3136 46.9563 28.4712 47.5661 28.1903 48.0405C27.9103 48.5131 27.2985 48.6696 26.8259 48.3897L25.1686 47.408C25.8791 46.3117 25.6088 44.8344 24.5365 44.0646C24.2215 43.8387 23.8709 43.698 23.5122 43.6375C23.8926 42.6202 23.5646 41.4325 22.6409 40.7694C22.094 40.3767 21.4392 40.241 20.8212 40.3379C20.7113 39.6948 20.3596 39.1315 19.8291 38.7508C18.8312 38.0347 17.4752 38.1723 16.6376 39.0196C16.4673 38.7207 16.2324 38.4525 15.9351 38.2392C15.1059 37.644 14.0294 37.6385 13.2085 38.1397L12.8714 37.9408L17.4974 30.1323L17.7176 30.2622C18.6903 30.8384 19.8772 30.9585 20.9772 30.5331L22.3911 29.9865C23.2002 29.6738 23.6463 29.6534 24.4466 30.0311C23.923 30.6193 23.6122 31.3917 23.6122 32.2241V35.4854C23.6122 36.3516 24.3164 37.0567 25.1819 37.0573H25.184C26.0522 37.0573 26.8686 36.7193 27.4828 36.1056C27.8408 35.7478 28.105 35.3212 28.2634 34.8556C29.2131 35.418 37.0595 40.0644 37.9692 40.6033C38.198 40.7389 38.3603 40.9554 38.4262 41.213C38.4921 41.4703 38.4538 41.7382 38.3182 41.967ZM43.653 36.9534L42.1371 37.8516C41.4707 38.2461 40.6076 38.0251 40.213 37.3591L37.8951 33.4465C37.688 33.097 37.2366 32.9816 36.8874 33.1885C36.5379 33.3955 36.4224 33.8467 36.6294 34.1962L38.9473 38.1089C38.991 38.1825 39.0383 38.2525 39.0874 38.3208L38.4429 38.6973C38.3127 38.7744 38.1874 38.8594 38.0675 38.9517L28.0751 33.0342C27.5855 32.7444 26.9648 33.0977 26.9648 33.667C26.9571 33.7109 27.0408 34.467 26.4428 35.0647C26.1065 35.4008 25.6594 35.5859 25.1839 35.5859C25.1836 35.5859 25.1832 35.5859 25.1828 35.5859C25.1278 35.5859 25.0831 35.5406 25.0831 35.485V32.2237C25.0831 31.3718 25.6692 30.653 26.4619 30.4523L28.9048 29.8341C29.7913 29.6101 30.2923 30.0834 31.6196 30.5326C32.541 30.8891 33.5428 30.8671 34.4321 30.4873L34.876 31.2367C35.0832 31.5864 35.5343 31.7017 35.8837 31.4947C36.2333 31.2877 36.3487 30.8365 36.1418 30.487L35.2673 29.0111C34.8717 28.3434 35.0921 27.4828 35.7598 27.087L37.2756 26.1891C37.3419 26.1497 37.4295 26.1698 37.4705 26.239L43.7027 36.7586C43.7429 36.8265 43.7208 36.9133 43.653 36.9534Z" fill="#876953"/>
</svg>
