<svg width="50" height="50" viewBox="0 0 50 50" fill="none" xmlns="http://www.w3.org/2000/svg">
<path d="M47.3862 7.83008H43.2571V3.78516C43.2561 1.69824 41.4718 0 39.2779 0C37.084 0 35.2987 1.69824 35.2987 3.78516V7.83105H9.45425V6.2793C9.45425 5.2041 8.53439 4.3291 7.40407 4.3291H4.45045C1.9968 4.3291 0 6.22852 0 8.5625V41.4316V41.4326C0 41.4326 0 41.4326 0 41.4336C0 43.7705 1.99885 45.6719 4.45558 45.6719H36.3263L37.3622 48.6797C37.6384 49.4814 38.3909 50 39.2779 50C40.1649 50 40.9174 49.4814 41.1936 48.6797L42.2295 45.6709H47.3862C48.8276 45.6709 50.0011 44.5557 50.0011 43.1836V10.3174C50 8.94629 48.8276 7.83008 47.3862 7.83008ZM36.8386 41.1074V10.9824H38.5079V41.1074H36.8386ZM36.8386 9.51758V7.6084H41.7161V9.51758H36.8386ZM39.2779 1.46484C40.6228 1.46484 41.7172 2.50586 41.7172 3.78418V6.14258H36.8396V3.78418C36.8386 2.50586 37.933 1.46484 39.2779 1.46484ZM1.53995 8.5625C1.53995 7.03613 2.84582 5.79395 4.45045 5.79395H7.40407C7.68536 5.79395 7.9143 6.01172 7.9143 6.2793V36.7139C7.9143 36.9814 7.68536 37.1992 7.40407 37.1992H4.45147C3.33963 37.1992 2.32121 37.5889 1.54097 38.2324V8.5625H1.53995ZM4.45558 44.2061C2.84788 44.2061 1.53995 42.9619 1.53995 41.4326V41.4316C1.53995 39.9053 2.84582 38.6631 4.45045 38.6631H7.40407C8.53439 38.6631 9.45425 37.7881 9.45425 36.7129V9.29492H35.2987V41.8389C35.2987 42.4004 35.3921 42.9561 35.5759 43.4893L35.8222 44.2051L4.45558 44.2061ZM39.7296 48.2236C39.6331 48.5049 39.3816 48.5352 39.2779 48.5352C39.1742 48.5352 38.9227 48.5049 38.8262 48.2236C38.7358 47.9648 36.9834 42.915 36.9136 42.5723H41.6432C41.5734 42.9121 39.8251 47.9512 39.7296 48.2236ZM48.4611 43.1836C48.4611 43.7471 47.9786 44.2061 47.3862 44.2061H42.7335L42.9799 43.4902C43.1637 42.9561 43.2571 42.4014 43.2571 41.8398V17.4561C43.2571 17.0518 42.9122 16.7236 42.4871 16.7236C42.0621 16.7236 41.7172 17.0518 41.7172 17.4561V41.1064H40.0479V10.9824H41.7172V14.0322C41.7172 14.4365 42.0621 14.7646 42.4871 14.7646C42.9122 14.7646 43.2571 14.4365 43.2571 14.0322V9.29492H47.3862C47.9786 9.29492 48.4611 9.75391 48.4611 10.3174V43.1836Z" fill="#876953"/>
<path d="M33.6304 19.1079L26.0508 14.9448C25.403 14.5894 24.5981 14.5894 23.9513 14.9448L16.3717 19.1079C15.726 19.4624 15.3215 20.1235 15.3215 20.8374V23.4819C15.3215 23.8862 15.6664 24.2143 16.0914 24.2143C16.5165 24.2143 16.8614 23.8862 16.8614 23.4819V21.3755L24.2306 25.4224V33.5171L17.1407 29.6235C16.9682 29.5288 16.8604 29.352 16.8604 29.1626V26.9058C16.8604 26.5015 16.5154 26.1733 16.0904 26.1733C15.6654 26.1733 15.3204 26.5015 15.3204 26.9058V29.1626C15.3204 29.8735 15.7229 30.5366 16.3707 30.8921L23.9503 35.0552C24.5981 35.4106 25.403 35.4106 26.0498 35.0552L33.6294 30.8921C34.2772 30.5366 34.6796 29.8735 34.6796 29.1626V20.8374C34.6806 20.1265 34.2782 19.4634 33.6304 19.1079ZM24.7213 16.2144C24.8938 16.1196 25.1083 16.1196 25.2818 16.2144L32.3717 20.1079L25.0026 24.1548L17.6334 20.1079L24.7213 16.2144ZM32.8604 29.6245L25.7705 33.5181V25.4233L33.1397 21.3765V29.1636C33.1407 29.353 33.0339 29.5298 32.8604 29.6245Z" fill="#876953"/>
</svg>
