<svg width="50" height="51" viewBox="0 0 50 51" fill="none" xmlns="http://www.w3.org/2000/svg">
<path d="M48.5764 44.8191H41.3499V43.9308C41.3499 43.027 40.6146 42.2916 39.7108 42.2916H39.0378L38.8245 40.1977H46.75C47.8629 40.1977 48.7682 39.2924 48.7682 38.1795V26.8352C48.7682 25.7224 47.8629 24.817 46.75 24.817H26.251C25.1382 24.817 24.2328 25.7223 24.2328 26.8352V32.969C22.6074 32.436 20.3637 32.0821 19.0406 31.9046H19.0405C18.929 31.8897 18.8453 31.7939 18.8457 31.6818L18.8547 29.5364C19.0116 29.4216 19.1663 29.3003 19.3178 29.1709C20.4637 28.1927 21.2045 26.7945 21.4083 25.2595C21.7868 25.2038 22.1365 25.0297 22.4133 24.7552C22.7559 24.4155 22.9458 23.9625 22.9478 23.4799L22.9528 22.2901C22.9549 21.7782 22.7428 21.3014 22.3797 20.963L22.3955 17.237C22.4017 15.7533 21.2028 14.5403 19.7207 14.5277C19.345 13.4612 18.3331 12.7417 17.202 12.7369L12.5385 12.7173C12.5309 12.7173 12.5237 12.7173 12.516 12.7173C9.62887 12.7173 7.27367 15.0602 7.26145 17.9501L7.24904 20.8993C6.88312 21.2345 6.66703 21.7096 6.66478 22.2215L6.6598 23.4114C6.65599 24.3141 7.31843 25.0673 8.18426 25.2037C8.37503 26.7402 9.10413 28.1447 10.2417 29.1327C10.3921 29.2634 10.5457 29.3859 10.7017 29.5021L10.6927 31.6475C10.6922 31.7596 10.6077 31.8547 10.4961 31.8688H10.496C8.92 32.0666 6.03831 32.5031 4.44358 33.205C2.49799 34.0614 1.23507 35.9884 1.22607 38.1142L1.22148 39.1974C1.21972 39.6021 1.54654 39.9316 1.95136 39.9334H1.95449C2.35784 39.9334 2.68573 39.6073 2.6874 39.2035L2.69199 38.1204C2.69854 36.5729 3.61792 35.1702 5.03419 34.5467C5.64336 34.2785 6.50479 34.0493 7.39134 33.8619L9.899 37.1487C10.509 37.9482 11.5384 38.1969 12.4038 37.8761L12.9946 38.7417L12.0566 44.8192H6.83943L6.85019 42.2712C6.85194 41.8665 6.52512 41.5369 6.12031 41.5352C6.11923 41.5352 6.11825 41.5352 6.11718 41.5352C5.71383 41.5352 5.38593 41.8613 5.38427 42.265L5.37352 44.8192H2.66374L2.67293 42.6394C2.67469 42.2347 2.34787 41.9051 1.94305 41.9033C1.94198 41.9033 1.941 41.9033 1.93992 41.9033C1.53658 41.9033 1.20868 42.2295 1.20702 42.6332L1.19773 44.8334C0.522487 44.9258 0 45.5048 0 46.2049V48.6539C0 49.418 0.621687 50.0397 1.38577 50.0397H48.5764C49.3406 50.0397 49.9622 49.418 49.9622 48.6539V46.2049C49.9622 45.4408 49.3406 44.8191 48.5764 44.8191ZM39.8839 43.9308V44.8191H33.1168V43.9308C33.1168 43.8352 33.1945 43.7576 33.29 43.7576H39.7107C39.8063 43.7575 39.8839 43.8352 39.8839 43.9308ZM34.1765 40.1977L33.9632 42.2916H33.29C32.3862 42.2916 31.6509 43.027 31.6509 43.9308V44.8191H28.2292L28.2505 40.1977H34.1765ZM35.4367 42.2916L35.7169 39.5402C35.7169 39.5398 35.717 39.5395 35.717 39.5392L35.8101 38.6262C35.8106 38.6211 35.8148 38.6173 35.8199 38.6173H37.181C37.1861 38.6173 37.1903 38.6211 37.1908 38.6262L37.2837 39.5384C37.2838 39.5393 37.2839 39.5403 37.284 39.5413L37.5641 42.2918H35.4367V42.2916ZM25.6988 26.8352C25.6988 26.5307 25.9466 26.283 26.251 26.283H46.75C47.0544 26.283 47.3021 26.5307 47.3021 26.8352V38.1795C47.3021 38.4839 47.0544 38.7317 46.75 38.7317H38.6752L38.6493 38.4776C38.5722 37.7214 37.9411 37.1512 37.1811 37.1512H35.82C35.0599 37.1512 34.4287 37.7214 34.3518 38.4776L34.3259 38.7317H26.251C25.9465 38.7317 25.6988 38.4839 25.6988 38.1795V26.8352ZM26.251 40.1977H26.7846L26.7633 44.8191H24.0542L24.0647 42.3437C24.0664 41.939 23.7396 41.6094 23.3348 41.6077C23.3337 41.6077 23.3328 41.6077 23.3317 41.6077C22.9283 41.6077 22.6004 41.9338 22.5988 42.3376L22.5883 44.8191H17.3675L16.4844 38.7594L17.0753 37.8859C17.9594 38.2281 18.9903 37.968 19.5985 37.1842L22.1286 33.9239C22.8997 34.0938 23.651 34.2952 24.233 34.525V38.1795C24.2328 39.2924 25.1382 40.1977 26.251 40.1977ZM14.1542 37.8401L13.6185 37.0551L14.7513 36.162L15.8683 37.0536L15.3328 37.8451L14.1542 37.8401ZM19.1049 33.3931C19.4852 33.4463 19.9761 33.5197 20.5151 33.6118L18.4402 36.2856C18.1922 36.605 17.7298 36.6636 17.4101 36.4083L16.0239 35.302L19.1049 33.3931ZM8.72746 17.9561C8.73626 15.8723 10.4343 14.1832 12.5162 14.1832H12.5324L17.1959 14.2028C17.7092 14.205 18.1685 14.5317 18.3386 15.0158C18.5434 15.598 19.0916 15.9909 19.7028 15.9935C20.3823 15.9964 20.9326 16.5515 20.9298 17.2309L20.9155 20.6215C20.4311 20.6611 20.0458 20.7461 19.7431 20.8463L19.7507 19.048C19.7564 17.7077 18.6759 16.6169 17.3347 16.6113L17.3141 16.6112C16.953 16.6104 16.5954 16.6644 16.2505 16.7737C15.3434 17.0614 14.3057 17.053 13.4139 16.7618C13.0698 16.6495 12.7124 16.5918 12.3519 16.5903L12.3313 16.5902C12.3277 16.5902 12.3242 16.5902 12.3207 16.5902C11.003 16.5902 9.90027 17.652 9.8946 19.0065L9.8861 21.0776L9.71663 21.087C9.38551 20.8444 9.02457 20.7092 8.71632 20.634L8.72746 17.9561ZM9.60101 24.4817C9.59417 24.083 9.26979 23.763 8.87103 23.7613L8.46524 23.7597C8.2773 23.7589 8.12493 23.6053 8.12581 23.4173L8.1308 22.2276C8.13109 22.1457 8.15943 22.0785 8.19901 22.0262C8.39116 22.0548 8.67977 22.1261 8.89332 22.3032C9.11019 22.4833 9.38472 22.5728 9.66561 22.5579L10.2969 22.523C10.8851 22.4902 11.3479 22.003 11.3505 21.4138L11.3603 19.0125C11.3626 18.4695 11.8099 18.0512 12.3246 18.0561L12.3454 18.0562C12.5535 18.0571 12.7598 18.0904 12.9589 18.1554C14.1634 18.5485 15.5115 18.546 16.6935 18.1711C16.8901 18.1087 17.0938 18.0771 17.2987 18.0771H17.3073L17.3281 18.0772C17.8587 18.0794 18.2868 18.5109 18.2846 19.0418L18.2732 21.7356C18.2716 22.1101 18.4933 22.4462 18.838 22.592C18.955 22.6416 19.0779 22.6656 19.1998 22.6656C19.4374 22.6656 19.6707 22.5741 19.8478 22.4006C20.0337 22.2188 20.7757 22.0885 21.4092 22.0676C21.4543 22.122 21.4873 22.1944 21.4869 22.2839L21.482 23.4737C21.4815 23.5966 21.4186 23.6772 21.3811 23.7142C21.3439 23.7513 21.2632 23.813 21.1413 23.813C21.1408 23.813 21.1402 23.813 21.1397 23.813L20.7336 23.8113C20.3304 23.8093 20.008 24.1269 19.9978 24.5254C19.9621 25.9142 19.3674 27.2011 18.366 28.0559C16.2385 29.8722 13.3347 29.8772 11.2029 28.0256C10.2088 27.1626 9.62496 25.8708 9.60101 24.4817ZM17.3852 30.3666L17.3798 31.6756C17.3784 32.0044 17.4736 32.3141 17.6386 32.5771L14.7578 34.362L11.8922 32.5528C12.0594 32.2912 12.1572 31.9824 12.1587 31.6536L12.1642 30.3445C13.7987 31.0376 15.6513 31.0847 17.3852 30.3666ZM11.0646 36.2595L9.00747 33.5632C9.54716 33.4756 10.0386 33.4064 10.4191 33.3565L13.4862 35.2928L12.0949 36.3897C11.7762 36.6407 11.3125 36.5844 11.0646 36.2595ZM14.3907 39.3071L15.083 39.3101L15.8858 44.8191H13.5398L14.3907 39.3071ZM48.4963 48.5738H1.46591V46.2851H48.4963V48.5738Z" fill="#876953"/>
<path d="M36.5005 34.4385C38.0289 34.4385 39.2722 33.1951 39.2722 31.6668C39.2722 30.1384 38.0289 28.895 36.5005 28.895C34.9721 28.895 33.7288 30.1384 33.7288 31.6668C33.7288 33.1951 34.9721 34.4385 36.5005 34.4385ZM36.5005 30.3609C37.2205 30.3609 37.8063 30.9468 37.8063 31.6668C37.8063 32.3868 37.2206 32.9726 36.5005 32.9726C35.7804 32.9726 35.1947 32.3868 35.1947 31.6668C35.1947 30.9468 35.7804 30.3609 36.5005 30.3609Z" fill="#876953"/>
<path d="M40.6922 5.08594C40.2874 5.08594 39.9592 5.41403 39.9592 5.81894V9.0472C39.9592 9.595 40.4049 10.0408 40.9531 10.0408L42.7091 10.0401C43.1139 10.0399 43.4419 9.71169 43.4418 9.30678C43.4417 8.90206 43.1135 8.57407 42.7088 8.57407C42.7088 8.57407 42.7086 8.57407 42.7085 8.57407L41.4251 8.57456V5.81894C41.4252 5.41403 41.097 5.08594 40.6922 5.08594Z" fill="#876953"/>
<path d="M40.6922 18.6155C45.8245 18.6155 50 14.44 50 9.30781C50 4.1755 45.8245 0 40.6922 0C35.5599 0 31.3845 4.1755 31.3845 9.30781C31.3845 14.4401 35.5599 18.6155 40.6922 18.6155ZM40.6922 1.46591C45.0162 1.46591 48.534 4.98385 48.534 9.30781C48.534 13.6318 45.0162 17.1496 40.6922 17.1496C36.3683 17.1496 32.8504 13.6318 32.8504 9.30781C32.8504 4.98385 36.3683 1.46591 40.6922 1.46591Z" fill="#876953"/>
<path d="M40.6921 16.0502C44.4099 16.0502 47.4345 13.0256 47.4345 9.30791C47.4345 5.5902 44.41 2.56543 40.6921 2.56543C37.6508 2.56543 35.0778 4.57953 34.2385 7.35079C34.1211 7.7382 34.34 8.14742 34.7274 8.2647C35.1149 8.38188 35.5241 8.16305 35.6414 7.77564C36.3093 5.57105 38.3862 4.03134 40.6921 4.03134C43.6016 4.03134 45.9685 6.39837 45.9685 9.30781C45.9685 12.2172 43.6015 14.5842 40.6921 14.5842C38.3676 14.5842 36.3426 13.0944 35.6529 10.8771C35.5327 10.4906 35.122 10.2744 34.7352 10.395C34.3487 10.5151 34.1328 10.926 34.253 11.3125C35.1345 14.1462 37.7222 16.0502 40.6921 16.0502Z" fill="#876953"/>
</svg>
