<svg width="30" height="30" viewBox="0 0 30 30" fill="none" xmlns="http://www.w3.org/2000/svg">
<path d="M10.0144 15.4683L20.2471 24.5433C20.3655 24.6483 20.5089 24.7205 20.6633 24.7529C20.8177 24.7852 20.9778 24.7766 21.1279 24.7278C21.278 24.679 21.413 24.5918 21.5195 24.4746C21.6261 24.3575 21.7007 24.2144 21.7359 24.0595L26.0164 5.23526C26.0534 5.0725 26.0456 4.90265 25.9939 4.74402C25.9422 4.58538 25.8486 4.44397 25.723 4.33502C25.5975 4.22607 25.4448 4.15372 25.2814 4.12575C25.1181 4.09779 24.9503 4.11528 24.7961 4.17633L3.79334 12.4918C3.61029 12.5643 3.45545 12.6945 3.35199 12.8631C3.24853 13.0316 3.20201 13.2294 3.21938 13.4269C3.23676 13.6243 3.3171 13.8107 3.44838 13.9583C3.57967 14.1059 3.75484 14.2066 3.94768 14.2455L10.0144 15.4683Z" stroke="#ABABAB" stroke-width="1.5" stroke-linecap="round" stroke-linejoin="round"/>
<path d="M10.0146 15.4684L25.5043 4.19409" stroke="#ABABAB" stroke-width="1.5" stroke-linecap="round" stroke-linejoin="round"/>
<path d="M15.1251 20.0005L11.5688 23.5846C11.4415 23.7129 11.2793 23.8003 11.1027 23.8357C10.9261 23.8711 10.743 23.8529 10.5767 23.7835C10.4103 23.714 10.2681 23.5964 10.1681 23.4455C10.068 23.2947 10.0146 23.1173 10.0146 22.9358V15.4683" stroke="#ABABAB" stroke-width="1.5" stroke-linecap="round" stroke-linejoin="round"/>
</svg>
