<svg width="38" height="22" viewBox="0 0 38 22" fill="none" xmlns="http://www.w3.org/2000/svg">
<path d="M36.4163 1.27391L36.4079 1.30156L36.4017 1.32977C36.2977 1.79968 35.9354 2.58982 35.3846 3.57695C34.8479 4.53886 34.1755 5.61318 33.5131 6.62364C32.8516 7.6325 32.2054 8.56962 31.7238 9.25539C31.4831 9.59808 31.2839 9.8775 31.1449 10.0711C31.0754 10.1679 31.021 10.2431 30.9841 10.294L30.9644 10.3211L30.9469 10.3382L30.9 10.4118C30.8946 10.4203 30.8891 10.429 30.8836 10.4377C30.6897 10.7421 30.4301 11.1497 30.3912 11.6226C30.3461 12.1707 30.5922 12.637 30.9406 13.0759C30.9898 13.1398 31.0535 13.2066 31.0932 13.2481C31.1512 13.3087 31.2256 13.3842 31.3115 13.4705C31.4032 13.5626 31.5145 13.6734 31.6397 13.7981C31.7467 13.9048 31.864 14.0216 31.9879 14.1455C32.5323 14.6899 33.2395 15.4053 33.9621 16.183C34.6862 16.9622 35.4172 17.7948 36.0121 18.5731C36.6173 19.365 37.03 20.0356 37.1877 20.5073C37.3151 20.934 37.2122 21.053 37.1965 21.0707C37.1502 21.1229 36.9673 21.25 36.4638 21.25H32.3088C32.0221 21.25 31.8151 21.1967 31.6196 21.0969C31.4086 20.989 31.1774 20.8099 30.8648 20.5045C30.6104 20.2559 30.3322 19.9545 29.9845 19.5777C29.9007 19.4869 29.8128 19.3917 29.7203 19.2918C29.2511 18.7854 28.6832 18.1825 27.9648 17.4823L27.9597 17.4773L27.9545 17.4725C25.4703 15.1413 24.225 14.65 23.3004 14.65C22.9805 14.65 22.5241 14.6626 22.1473 14.9207C21.7224 15.2118 21.5814 15.6717 21.5188 16.0757C21.4554 16.4843 21.4456 17.0275 21.4473 17.7048C21.448 17.9908 21.4509 18.2973 21.454 18.6365C21.4587 19.1456 21.4641 19.7283 21.4641 20.4256C21.4641 20.8534 21.3935 20.9048 21.311 20.9587C21.1035 21.0943 20.5681 21.25 19.2442 21.25C15.1322 21.25 10.5026 18.8036 7.1777 14.1526L7.17774 14.1526L7.17262 14.1456C4.62807 10.6717 3.01484 7.62989 2.04025 5.33722C1.55276 4.19044 1.22646 3.23439 1.02326 2.50851C0.813842 1.76042 0.75 1.30856 0.75 1.14812C0.75 0.92686 0.796657 0.879316 0.802554 0.873325C0.810057 0.865703 0.928492 0.75 1.42497 0.75H5.57997C6.00204 0.75 6.16444 0.837165 6.26556 0.927174C6.40206 1.04867 6.55305 1.28781 6.75043 1.82756C7.78523 4.76783 9.17548 7.52519 10.4956 9.55896C11.1546 10.5743 11.8095 11.43 12.4083 12.0416C12.7071 12.3467 13.0087 12.6085 13.3055 12.7988C13.5891 12.9808 13.9424 13.1456 14.3273 13.1456C14.5067 13.1456 14.7406 13.127 14.9747 13.0232C15.2299 12.9101 15.4271 12.7221 15.5634 12.4806C15.7967 12.0672 15.8463 11.4954 15.8463 10.8488V4.88125V4.8601L15.8451 4.83899C15.7583 3.30086 15.2848 2.4168 14.8119 1.7885C14.7082 1.65066 14.6062 1.52732 14.5213 1.42472L14.505 1.40498C14.412 1.29257 14.3463 1.21185 14.2938 1.13766C14.1968 1.00055 14.1955 0.955024 14.1955 0.928125C14.1955 0.916942 14.233 0.75 14.5037 0.75H21.036C21.1931 0.75 21.276 0.771286 21.3135 0.786056C21.3401 0.796497 21.3451 0.803285 21.3494 0.808988L21.35 0.809793C21.3796 0.849227 21.457 1.01023 21.457 1.49187V9.515C21.457 10.5509 21.9917 11.4269 22.8701 11.4269C23.7504 11.4269 24.4064 10.8732 25.3335 9.96961L25.3485 9.95503L25.3626 9.93965C26.9188 8.24417 28.2299 6.11135 29.1445 4.42603C29.6043 3.57896 29.9688 2.83559 30.2189 2.30307C30.344 2.03666 30.4406 1.82261 30.5063 1.67426C30.5392 1.60008 30.5643 1.54229 30.5815 1.50257L30.6012 1.45672L30.606 1.44522L30.6064 1.44434L30.607 1.44299C30.7036 1.2198 30.8201 1.05883 30.9666 0.950737C31.1058 0.848069 31.3299 0.75 31.7233 0.75H35.8783C36.3117 0.75 36.4409 0.840162 36.4638 0.859834C36.471 0.879062 36.5035 0.98704 36.4163 1.27391ZM30.9327 10.3645L30.933 10.3642C30.932 10.3655 30.9321 10.3654 30.9327 10.3645Z" stroke="#BDBDBD" stroke-width="1.5"/>
</svg>
